<svg xmlns="http://www.w3.org/2000/svg" xmlns:xlink="http://www.w3.org/1999/xlink" contentStyleType="text/css" data-diagram-type="CLASS" height="522px" preserveAspectRatio="none" style="width:175px;height:522px;background:#FFFFFF;" version="1.1" viewBox="0 0 175 522" width="175px" zoomAndPan="magnify"><defs/><g><!--class User--><g class="entity" data-entity="User" data-source-line="1" data-uid="ent0002" id="entity_User"><rect fill="#F1F1F1" height="129.4844" rx="2.5" ry="2.5" style="stroke:#181818;stroke-width:0.5;" width="161.0371" x="7" y="7"/><ellipse cx="67.3135" cy="23" fill="#ADD1B2" rx="11" ry="11" style="stroke:#181818;stroke-width:1;"/><path d="M70.2822,28.6406 Q69.7041,28.9375 69.0635,29.0781 Q68.4229,29.2344 67.7197,29.2344 Q65.2197,29.2344 63.8916,27.5938 Q62.5791,25.9375 62.5791,22.8125 Q62.5791,19.6875 63.8916,18.0313 Q65.2197,16.375 67.7197,16.375 Q68.4229,16.375 69.0635,16.5313 Q69.7197,16.6875 70.2822,16.9844 L70.2822,19.7031 Q69.6572,19.125 69.0635,18.8594 Q68.4697,18.5781 67.8447,18.5781 Q66.501,18.5781 65.8135,19.6563 Q65.126,20.7188 65.126,22.8125 Q65.126,24.9063 65.8135,25.9844 Q66.501,27.0469 67.8447,27.0469 Q68.4697,27.0469 69.0635,26.7813 Q69.6572,26.5 70.2822,25.9219 L70.2822,28.6406 Z " fill="#000000"/><text fill="#000000" font-family="sans-serif" font-size="14" lengthAdjust="spacing" textLength="31.9102" x="87.8135" y="27.8467">User</text><line style="stroke:#181818;stroke-width:0.5;" x1="8" x2="167.0371" y1="39" y2="39"/><g data-visibility-modifier="PUBLIC_FIELD"><ellipse cx="18" cy="52.6484" fill="none" rx="3" ry="3" style="stroke:#038048;stroke-width:1;"/></g><text fill="#000000" font-family="sans-serif" font-size="14" lengthAdjust="spacing" textLength="40.1953" x="27" y="55.9951">id: int</text><g data-visibility-modifier="PUBLIC_FIELD"><ellipse cx="18" cy="68.9453" fill="none" rx="3" ry="3" style="stroke:#038048;stroke-width:1;"/></g><text fill="#000000" font-family="sans-serif" font-size="14" lengthAdjust="spacing" textLength="97.9453" x="27" y="72.292">username: str</text><g data-visibility-modifier="PUBLIC_FIELD"><ellipse cx="18" cy="85.2422" fill="none" rx="3" ry="3" style="stroke:#038048;stroke-width:1;"/></g><text fill="#000000" font-family="sans-serif" font-size="14" lengthAdjust="spacing" textLength="66.3154" x="27" y="88.5889">email: str</text><g data-visibility-modifier="PUBLIC_FIELD"><ellipse cx="18" cy="101.5391" fill="none" rx="3" ry="3" style="stroke:#038048;stroke-width:1;"/></g><text fill="#000000" font-family="sans-serif" font-size="14" lengthAdjust="spacing" textLength="135.0371" x="27" y="104.8857">password_hash: str</text><g data-visibility-modifier="PUBLIC_FIELD"><ellipse cx="18" cy="117.8359" fill="none" rx="3" ry="3" style="stroke:#038048;stroke-width:1;"/></g><text fill="#000000" font-family="sans-serif" font-size="14" lengthAdjust="spacing" textLength="75.9883" x="27" y="121.1826">role: enum</text><line style="stroke:#181818;stroke-width:0.5;" x1="8" x2="167.0371" y1="128.4844" y2="128.4844"/></g><!--class Document--><g class="entity" data-entity="Document" data-source-line="9" data-uid="ent0003" id="entity_Document"><rect fill="#F1F1F1" height="129.4844" rx="2.5" ry="2.5" style="stroke:#181818;stroke-width:0.5;" width="152.9844" x="11.03" y="196.48"/><ellipse cx="47.8348" cy="212.48" fill="#ADD1B2" rx="11" ry="11" style="stroke:#181818;stroke-width:1;"/><path d="M50.8035,218.1206 Q50.2254,218.4175 49.5848,218.5581 Q48.9442,218.7144 48.241,218.7144 Q45.741,218.7144 44.4129,217.0737 Q43.1004,215.4175 43.1004,212.2925 Q43.1004,209.1675 44.4129,207.5112 Q45.741,205.855 48.241,205.855 Q48.9442,205.855 49.5848,206.0112 Q50.241,206.1675 50.8035,206.4644 L50.8035,209.1831 Q50.1785,208.605 49.5848,208.3394 Q48.991,208.0581 48.366,208.0581 Q47.0223,208.0581 46.3348,209.1362 Q45.6473,210.1987 45.6473,212.2925 Q45.6473,214.3862 46.3348,215.4644 Q47.0223,216.5269 48.366,216.5269 Q48.991,216.5269 49.5848,216.2612 Q50.1785,215.98 50.8035,215.4019 L50.8035,218.1206 Z " fill="#000000"/><text fill="#000000" font-family="sans-serif" font-size="14" lengthAdjust="spacing" textLength="72.5293" x="66.6803" y="217.3267">Document</text><line style="stroke:#181818;stroke-width:0.5;" x1="12.03" x2="163.0144" y1="228.48" y2="228.48"/><g data-visibility-modifier="PUBLIC_FIELD"><ellipse cx="22.03" cy="242.1284" fill="none" rx="3" ry="3" style="stroke:#038048;stroke-width:1;"/></g><text fill="#000000" font-family="sans-serif" font-size="14" lengthAdjust="spacing" textLength="40.1953" x="31.03" y="245.4751">id: int</text><g data-visibility-modifier="PUBLIC_FIELD"><ellipse cx="22.03" cy="258.4253" fill="none" rx="3" ry="3" style="stroke:#038048;stroke-width:1;"/></g><text fill="#000000" font-family="sans-serif" font-size="14" lengthAdjust="spacing" textLength="77.7314" x="31.03" y="261.772">user_id: int</text><g data-visibility-modifier="PUBLIC_FIELD"><ellipse cx="22.03" cy="274.7222" fill="none" rx="3" ry="3" style="stroke:#038048;stroke-width:1;"/></g><text fill="#000000" font-family="sans-serif" font-size="14" lengthAdjust="spacing" textLength="87.8555" x="31.03" y="278.0689">file_path: str</text><g data-visibility-modifier="PUBLIC_FIELD"><ellipse cx="22.03" cy="291.0191" fill="none" rx="3" ry="3" style="stroke:#038048;stroke-width:1;"/></g><text fill="#000000" font-family="sans-serif" font-size="14" lengthAdjust="spacing" textLength="61.3252" x="31.03" y="294.3657">hash: str</text><g data-visibility-modifier="PUBLIC_FIELD"><ellipse cx="22.03" cy="307.3159" fill="none" rx="3" ry="3" style="stroke:#038048;stroke-width:1;"/></g><text fill="#000000" font-family="sans-serif" font-size="14" lengthAdjust="spacing" textLength="126.9844" x="31.03" y="310.6626">uploaded_at: date</text><line style="stroke:#181818;stroke-width:0.5;" x1="12.03" x2="163.0144" y1="317.9644" y2="317.9644"/></g><!--class Verification--><g class="entity" data-entity="Verification" data-source-line="17" data-uid="ent0004" id="entity_Verification"><rect fill="#F1F1F1" height="129.4844" rx="2.5" ry="2.5" style="stroke:#181818;stroke-width:0.5;" width="143.8311" x="15.6" y="385.97"/><ellipse cx="45.0374" cy="401.97" fill="#ADD1B2" rx="11" ry="11" style="stroke:#181818;stroke-width:1;"/><path d="M48.0061,407.6106 Q47.428,407.9075 46.7874,408.0481 Q46.1467,408.2044 45.4436,408.2044 Q42.9436,408.2044 41.6155,406.5637 Q40.303,404.9075 40.303,401.7825 Q40.303,398.6575 41.6155,397.0012 Q42.9436,395.345 45.4436,395.345 Q46.1467,395.345 46.7874,395.5012 Q47.4436,395.6575 48.0061,395.9544 L48.0061,398.6731 Q47.3811,398.095 46.7874,397.8294 Q46.1936,397.5481 45.5686,397.5481 Q44.2249,397.5481 43.5374,398.6262 Q42.8499,399.6887 42.8499,401.7825 Q42.8499,403.8762 43.5374,404.9544 Q44.2249,406.0169 45.5686,406.0169 Q46.1936,406.0169 46.7874,405.7512 Q47.3811,405.47 48.0061,404.8919 L48.0061,407.6106 Z " fill="#000000"/><text fill="#000000" font-family="sans-serif" font-size="14" lengthAdjust="spacing" textLength="79.748" x="62.2457" y="406.8167">Verification</text><line style="stroke:#181818;stroke-width:0.5;" x1="16.6" x2="158.4311" y1="417.97" y2="417.97"/><g data-visibility-modifier="PUBLIC_FIELD"><ellipse cx="26.6" cy="431.6184" fill="none" rx="3" ry="3" style="stroke:#038048;stroke-width:1;"/></g><text fill="#000000" font-family="sans-serif" font-size="14" lengthAdjust="spacing" textLength="40.1953" x="35.6" y="434.9651">id: int</text><g data-visibility-modifier="PUBLIC_FIELD"><ellipse cx="26.6" cy="447.9153" fill="none" rx="3" ry="3" style="stroke:#038048;stroke-width:1;"/></g><text fill="#000000" font-family="sans-serif" font-size="14" lengthAdjust="spacing" textLength="117.8311" x="35.6" y="451.262">document_id: int</text><g data-visibility-modifier="PUBLIC_FIELD"><ellipse cx="26.6" cy="464.2122" fill="none" rx="3" ry="3" style="stroke:#038048;stroke-width:1;"/></g><text fill="#000000" font-family="sans-serif" font-size="14" lengthAdjust="spacing" textLength="97.2139" x="35.6" y="467.5589">verifier_ip: str</text><g data-visibility-modifier="PUBLIC_FIELD"><ellipse cx="26.6" cy="480.5091" fill="none" rx="3" ry="3" style="stroke:#038048;stroke-width:1;"/></g><text fill="#000000" font-family="sans-serif" font-size="14" lengthAdjust="spacing" textLength="92.1826" x="35.6" y="483.8557">status: enum</text><g data-visibility-modifier="PUBLIC_FIELD"><ellipse cx="26.6" cy="496.8059" fill="none" rx="3" ry="3" style="stroke:#038048;stroke-width:1;"/></g><text fill="#000000" font-family="sans-serif" font-size="14" lengthAdjust="spacing" textLength="114.666" x="35.6" y="500.1526">verified_at: date</text><line style="stroke:#181818;stroke-width:0.5;" x1="16.6" x2="158.4311" y1="507.4544" y2="507.4544"/></g><!--link User to Document--><g class="link" data-entity-1="User" data-entity-2="Document" data-link-type="association" data-source-line="25" data-uid="lnk5" id="link_User_Document"><path codeLine="25" d="M87.52,136.74 C87.52,155.94 87.52,176.99 87.52,196.2" fill="none" id="User-Document" style="stroke:#181818;stroke-width:1;"/><text fill="#000000" font-family="sans-serif" font-size="13" lengthAdjust="spacing" textLength="8.271" x="79.0975" y="156.7436">1</text><text fill="#000000" font-family="sans-serif" font-size="13" lengthAdjust="spacing" textLength="23.0356" x="63.2639" y="185.342">1..*</text></g><!--link Document to Verification--><g class="link" data-entity-1="Document" data-entity-2="Verification" data-link-type="association" data-source-line="26" data-uid="lnk6" id="link_Document_Verification"><path codeLine="26" d="M87.52,326.22 C87.52,345.42 87.52,366.48 87.52,385.68" fill="none" id="Document-Verification" style="stroke:#181818;stroke-width:1;"/><text fill="#000000" font-family="sans-serif" font-size="13" lengthAdjust="spacing" textLength="8.271" x="79.0971" y="346.2236">1</text><text fill="#000000" font-family="sans-serif" font-size="13" lengthAdjust="spacing" textLength="23.0356" x="63.2646" y="374.8209">1..*</text></g><!--SRC=[RP0z3iCW38LtJc5bR9LANJFt2ksAB70K9Fu4fXsgthqaYaYYTW8_yzvdeopc3FTC2Tu2u6pq0CRpV2rLzEXeWCnf5iYXiQsArVWAISi9yzJK56mra2zEV8HGI_ejgEB8yr-2tDMZiIGZyXPto2xH1jIa9V806fasn8EI6Or2Di7_OFJAtwEUYs76nvQV6RdaTVhjpP6tV5LtxQ3lwt6vdBgsdsYB7llxuRu0]--></g></svg>